<?xml version="1.0" encoding="UTF-8" standalone="no"?>
<svg
   viewBox="0 0 793.7007874015749 1122.5196850393702"
   width="793.7007874015749"
   height="1122.5196850393702"
   version="1.1"
   id="svg95"
   xmlns="http://www.w3.org/2000/svg"
   xmlns:svg="http://www.w3.org/2000/svg">
  <desc
     id="desc1">logoV2.dxf - scale = 1.000000, origin = (0.000000, 0.000000), method = manual</desc>
  <defs
     id="defs4">
    <marker
       id="DistanceX"
       orient="auto"
       refX="0.0"
       refY="0.0"
       style="overflow:visible">
      <path
         d="M 3,-3 L -3,3 M 0,-5 L  0,5"
         style="stroke:#000000; stroke-width:0.5"
         id="path1" />
    </marker>
    <pattern
       id="Hatch"
       patternUnits="userSpaceOnUse"
       width="8"
       height="8"
       x="0"
       y="0">
      <path
         d="M8 4 l-4,4"
         stroke="#000000"
         stroke-width="0.25"
         linecap="square"
         id="path2" />
      <path
         d="M6 2 l-4,4"
         stroke="#000000"
         stroke-width="0.25"
         linecap="square"
         id="path3" />
      <path
         d="M4 0 l-4,4"
         stroke="#000000"
         stroke-width="0.25"
         linecap="square"
         id="path4" />
    </pattern>
    <symbol
       id="*MODEL_SPACE" />
    <symbol
       id="*PAPER_SPACE" />
  </defs>
  <g
     id="g4" />
  <g
     id="g5" />
  <g
     id="g6" />
  <g
     id="g7" />
  <g
     id="g8" />
  <g
     id="g9" />
  <g
     id="g10" />
  <g
     id="g11" />
  <g
     id="g12" />
  <g
     id="g13" />
  <g
     id="g14" />
  <g
     id="g15" />
  <g
     id="g16" />
  <g
     id="g17" />
  <g
     id="g18" />
  <g
     id="g19" />
  <g
     id="g20" />
  <g
     id="g21" />
  <g
     id="g22" />
  <g
     id="g23" />
  <g
     id="g24" />
  <g
     id="g25" />
  <g
     id="g26" />
  <g
     id="g27" />
  <g
     id="g28" />
  <g
     id="g29" />
  <g
     id="g30" />
  <g
     id="g31" />
  <g
     id="g32" />
  <g
     id="g33" />
  <g
     id="g34" />
  <g
     id="g35" />
  <g
     id="g36" />
  <g
     id="g37" />
  <g
     id="g38" />
  <g
     id="g39" />
  <g
     id="g40" />
  <g
     id="g87">
    <path
       d="m 357.09705,929.21847 a 62.374112,56.732094 0 0 0 62.37411,0"
       style="fill:none;stroke:#000000;stroke-width:1.74879"
       id="path40" />
    <path
       style="fill:none;stroke:#000000;stroke-width:1.74879"
       d="m 416.00592,356.2281 152.03913,79.84014"
       id="path41" />
    <path
       style="fill:none;stroke:#000000;stroke-width:1.74879"
       d="m 197.83042,845.57772 159.26659,83.6411"
       id="path42" />
    <path
       style="fill:none;stroke:#000000;stroke-width:1.74879"
       d="M 208.52318,436.06824 360.56231,356.2281"
       id="path43" />
    <path
       d="m 197.82987,769.1564 a 48.513198,44.124962 0 0 0 0,76.42668"
       style="fill:none;stroke:#000000;stroke-width:1.74879"
       id="path44" />
    <path
       d="m 633.8844,470.64217 a 20.791371,18.910698 0 0 0 -20.79136,0"
       style="fill:none;stroke:#000000;stroke-width:1.74879"
       id="path45" />
    <path
       style="fill:none;stroke:#000000;stroke-width:1.74879"
       d="M 627.38543,543.58583 416.00592,654.57915"
       id="path46" />
    <path
       d="m 163.47517,470.64217 a 20.791371,18.910698 0 0 0 -20.79136,0"
       style="fill:none;stroke:#000000;stroke-width:1.74879"
       id="path47" />
    <path
       style="fill:none;stroke:#000000;stroke-width:1.74879"
       d="M 627.38543,543.58583 633.884,540.1668"
       id="path48" />
    <path
       style="fill:none;stroke:#000000;stroke-width:1.74879"
       d="M 360.56231,872.8132 V 741.93948"
       id="path49" />
    <path
       style="fill:none;stroke:#000000;stroke-width:1.74879"
       d="M 637.78058,534.02923 V 476.77969"
       id="path50" />
    <path
       style="fill:none;stroke:#000000;stroke-width:1.74879"
       d="M 416.00592,872.8132 V 712.81937"
       id="path51" />
    <path
       d="m 83.344,534.48735 a 62.374112,56.732094 0 0 0 31.18707,49.13143"
       style="fill:none;stroke:#000000;stroke-width:1.74879"
       id="path52" />
    <path
       style="fill:none;stroke:#000000;stroke-width:1.74879"
       d="m 83.344403,476.32771 v 58.15183"
       id="path53" />
    <path
       d="M 114.53107,427.19608 A 62.374112,56.732094 0 0 0 83.344,476.32751"
       style="fill:none;stroke:#000000;stroke-width:1.74879"
       id="path54" />
    <path
       style="fill:none;stroke:#000000;stroke-width:1.74879"
       d="M 357.09701,299.81748 114.53169,427.19545"
       id="path55" />
    <path
       d="m 419.47116,299.81828 a 62.374112,56.732094 0 0 0 -62.37411,0"
       style="fill:none;stroke:#000000;stroke-width:1.74879"
       id="path56" />
    <path
       style="fill:none;stroke:#000000;stroke-width:1.74879"
       d="M 662.03654,427.19545 419.47122,299.81748"
       id="path57" />
    <path
       d="M 693.22421,476.32751 A 62.374112,56.732094 0 0 0 662.03715,427.19608"
       style="fill:none;stroke:#000000;stroke-width:1.74879"
       id="path58" />
    <path
       style="fill:none;stroke:#000000;stroke-width:1.74879"
       d="M 693.22383,534.47954 V 476.32771"
       id="path59" />
    <path
       d="m 662.03715,583.61878 a 62.374112,56.732094 0 0 0 31.18706,-49.13143"
       style="fill:none;stroke:#000000;stroke-width:1.74879"
       id="path60" />
    <path
       style="fill:none;stroke:#000000;stroke-width:1.74879"
       d="M 360.56231,741.93948 256.73879,796.44379"
       id="path61" />
    <path
       d="m 578.73834,845.58308 a 48.513198,44.124962 0 0 0 0,-76.42668"
       style="fill:none;stroke:#000000;stroke-width:1.74879"
       id="path62" />
    <path
       style="fill:none;stroke:#000000;stroke-width:1.74879"
       d="M 360.56231,654.57915 V 574.14026"
       id="path63" />
    <path
       style="fill:none;stroke:#000000;stroke-width:1.74879"
       d="m 419.47122,929.21882 159.26659,-83.6411"
       id="path64" />
    <path
       style="fill:none;stroke:#000000;stroke-width:1.74879"
       d="M 416.00592,712.81937 662.03654,583.61347"
       id="path65" />
    <path
       style="fill:none;stroke:#000000;stroke-width:1.74879"
       d="M 578.73781,769.15828 511.53954,733.86724"
       id="path66" />
    <path
       style="fill:none;stroke:#000000;stroke-width:1.74879"
       d="M 416.00592,654.57915 V 574.14026"
       id="path67" />
    <path
       style="fill:none;stroke:#000000;stroke-width:1.74879"
       d="M 519.82944,796.44379 483.81773,777.54741"
       id="path68" />
    <path
       style="fill:none;stroke:#000000;stroke-width:1.74879"
       d="M 360.56231,515.90004 V 356.2281"
       id="path69" />
    <path
       style="fill:none;stroke:#000000;stroke-width:1.74879"
       d="M 416.00592,515.90004 V 356.2281"
       id="path70" />
    <path
       style="fill:none;stroke:#000000;stroke-width:1.74879"
       d="M 416.00592,872.8132 519.82944,818.29221"
       id="path71" />
    <path
       style="fill:none;stroke:#000000;stroke-width:1.74879"
       d="M 256.73879,818.29221 360.56231,872.8132"
       id="path72" />
    <path
       style="fill:none;stroke:#000000;stroke-width:1.74879"
       d="M 114.53169,583.61347 332.8405,698.25932"
       id="path73" />
    <path
       d="m 138.78765,534.48735 a 6.9304577,6.3035667 0 0 0 3.46524,5.45905"
       style="fill:none;stroke:#000000;stroke-width:1.74879"
       id="path74" />
    <path
       style="fill:none;stroke:#000000;stroke-width:1.74879"
       d="M 332.8405,698.25932 197.83042,769.15828"
       id="path75" />
    <path
       style="fill:none;stroke:#000000;stroke-width:1.74879"
       d="m 142.25331,539.94998 218.309,114.62917"
       id="path76" />
    <path
       d="m 142.68381,470.64217 a 7.7922981,7.0874498 0 0 0 -3.89616,6.13792"
       style="fill:none;stroke:#000000;stroke-width:1.74879"
       id="path77" />
    <path
       d="m 637.78056,476.78009 a 7.7922981,7.0874498 0 0 0 -3.89616,-6.13792"
       style="fill:none;stroke:#000000;stroke-width:1.74879"
       id="path78" />
    <path
       d="m 633.8844,540.17267 a 7.7922981,7.0874498 0 0 0 3.89616,-6.1379"
       style="fill:none;stroke:#000000;stroke-width:1.74879"
       id="path79" />
    <path
       d="m 256.73875,796.45165 a 13.860914,12.607132 0 0 0 0,21.83619"
       style="fill:none;stroke:#000000;stroke-width:1.74879"
       id="path80" />
    <path
       d="m 519.82946,818.28784 a 13.860914,12.607132 0 0 0 0,-21.83619"
       style="fill:none;stroke:#000000;stroke-width:1.74879"
       id="path81" />
    <path
       d="m 511.53958,733.86856 a 27.721831,25.214267 0 0 0 -27.72183,43.67239"
       style="fill:none;stroke:#000000;stroke-width:1.74879"
       id="path82" />
    <path
       style="fill:none;stroke:#000000;stroke-width:1.74879"
       d="M 163.47453,470.64212 360.56231,574.14026"
       id="path83" />
    <path
       style="fill:none;stroke:#000000;stroke-width:1.74879"
       d="M 416.00592,574.14026 613.0937,470.64212"
       id="path84" />
    <path
       style="fill:none;stroke:#000000;stroke-width:1.74879"
       d="m 208.52318,436.06824 152.03913,79.8318"
       id="path85" />
    <path
       style="fill:none;stroke:#000000;stroke-width:1.74879"
       d="m 416.00592,515.90004 152.03913,-79.8318"
       id="path86" />
    <path
       style="fill:none;stroke:#000000;stroke-width:1.74879"
       d="m 138.78765,476.77969 v 57.69985"
       id="path87" />
  </g>
  <g
     id="g88" />
  <g
     id="g89" />
  <g
     id="g90" />
  <g
     id="g91" />
  <g
     id="g92" />
  <g
     id="g93" />
  <g
     id="g94" />
  <g
     id="g95">
    <path
       style="fill:#000000;stroke-width:1.31926"
       d="m 384.7108,292.17716 c -18.67092,-0.65021 -33.64893,12.13349 -49.93813,19.21971 -75.98111,39.47092 -152.15826,78.6233 -227.27627,119.71215 -12.028489,8.05919 -21.03814,21.32193 -24.004328,35.24894 0.111311,27.10018 -0.220956,54.25129 0.164907,81.31993 5.808463,13.49622 13.634275,27.32454 27.674361,33.60982 72.10236,40.3 146.05458,77.16691 218.64052,116.57697 -45.62092,27.12797 -94.46307,48.74119 -140.0026,76.08068 -9.94289,6.29258 -15.02774,18.38806 -16.55631,29.64296 -1.41121,17.53027 8.62692,35.65439 25.282,42.20835 55.55701,30.18856 111.29055,60.16903 168.17236,87.78759 17.94289,5.872 38.43636,4.36306 54.66252,-5.6529 52.62001,-26.43709 105.11259,-53.23563 156.5374,-81.93093 14.88394,-8.16785 27.35745,-23.79104 25.02469,-41.64168 -0.56283,-19.37574 -17.21905,-32.9146 -33.40147,-40.55433 -21.21544,-10.89918 -41.85234,-23.21923 -63.94024,-32.25742 -16.4002,-5.01468 -37.55954,7.21553 -36.2925,25.59672 0.55727,15.59783 17.50494,21.87996 28.87939,28.60884 9.05283,5.85475 21.36901,8.83846 27.26125,18.41294 3.06277,9.58834 -8.75206,13.73058 -15.05681,17.50223 -30.65226,16.97174 -61.35733,33.84614 -92.75136,49.41665 -1.03236,-52.69962 -0.41545,-105.60208 -0.55914,-158.37804 82.80507,-43.81382 166.30329,-86.34381 248.60812,-131.08072 19.13207,-10.68211 29.50487,-33.14785 28.05144,-54.67848 -0.12567,-21.10367 1.75626,-42.62116 -2.0605,-63.46475 -3.46673,-14.10017 -12.55118,-26.3844 -25.55974,-33.04631 -53.32024,-31.12937 -108.81437,-58.36701 -163.2905,-87.3966 -32.21989,-16.35283 -63.89378,-33.98492 -96.78215,-48.91177 -6.99601,-1.78557 -14.29726,-2.12095 -21.48691,-1.95055 z m -25.7642,66.60968 c 1.53142,51.8385 1.19199,104.04456 0.0309,155.87351 -48.93062,-26.67456 -98.95427,-51.34448 -147.55858,-78.6273 48.6949,-26.74882 97.85853,-52.68098 147.48643,-77.6559 z m 59.71965,-0.18294 c 49.20675,24.94724 97.9906,50.78869 146.25992,77.43688 -48.28779,27.02165 -97.44573,52.49022 -146.7598,77.58117 -1.80153,-48.28128 -0.94019,-96.86204 -0.56172,-145.25244 0.42083,-2.83187 -0.36206,-8.1653 1.0616,-9.76561 z m 206.90202,110.26374 c 6.05722,-0.25046 12.25026,4.2098 11.09002,10.60562 -0.005,19.23732 1.33254,38.91863 -1.02294,58.05768 -72.06744,39.8586 -145.47232,77.38044 -218.46873,115.57943 0.004,-26.30787 0.007,-52.61574 0.008,-78.92361 67.28226,-34.94488 133.92357,-71.17968 201.90585,-104.74194 2.11105,-0.55136 4.31339,-0.73198 6.48807,-0.57718 z m -472.46984,-0.0309 c 12.78385,2.84043 24.08452,11.04804 36.1252,16.29153 56.72533,29.22199 113.28715,58.87519 169.49364,89.02242 2.14415,25.90457 1.09165,52.48668 0.47669,78.34387 C 286.574,615.71354 214.59783,577.62419 143.18338,538.55388 c -6.71322,-3.61172 -3.19458,-13.16087 -4.32884,-19.35074 0.3885,-15.05905 -1.10168,-30.53933 1.63621,-45.27233 2.83687,-3.81023 8.08501,-5.04693 12.60768,-5.09408 z M 358.95948,743.8893 c 1.63221,42.04252 1.00986,84.93074 0.17779,127.16418 -35.50916,-18.06031 -70.9359,-36.38833 -105.40929,-56.31328 -4.56888,-4.82214 -3.98924,-14.66579 3.31104,-16.59381 33.54917,-18.679 67.6936,-37.64767 101.92046,-54.25709 z"
       id="path95" />
  </g>
</svg>
